<?xml version="1.0" encoding="UTF-8"?>
<svg xmlns="http://www.w3.org/2000/svg" width="72" height="56" viewBox="0 0 72 56" fill="none">
  <path d="M53.957 9.705c-9.123 0-16.66 6.867-17.87 15.78V.275a.27.27 0 0 0-.466-.19L25.067 11.142a17.77 17.77 0 0 0-7.024-1.438C8.078 9.705 0 17.895 0 28c0 10.104 8.078 18.295 18.043 18.295 9.123 0 16.66-6.867 17.87-15.78v25.21a.27.27 0 0 0 .466.19l10.554-11.058a17.77 17.77 0 0 0 7.024 1.438C63.922 46.295 72 38.105 72 28c0-10.104-8.078-18.295-18.043-18.295z" fill="#314FFF"></path>
</svg>
